<svg width="22" height="22" viewBox="0 0 22 22" fill="none" xmlns="http://www.w3.org/2000/svg">
<g clip-path="url(#clip0)">
<path d="M21.1851 18.3865L16.6228 13.8242C17.5074 12.4309 18.0189 10.7791 18.0189 9.01083C18.0189 4.0425 13.9773 0 9.009 0C4.04067 0 0 4.0425 0 9.01083C0 13.9792 4.04067 18.0217 9.00992 18.0217C10.6911 18.0217 12.2659 17.5587 13.6134 16.7539L18.216 21.3565C20.1813 23.3191 23.1513 20.3518 21.1851 18.3865ZM2.79308 9.01083C2.79308 5.58342 5.5825 2.794 9.00992 2.794C12.4373 2.794 15.2267 5.5825 15.2267 9.01083C15.2267 12.4392 12.4373 15.2277 9.00992 15.2277C5.5825 15.2277 2.79308 12.4382 2.79308 9.01083ZM4.63558 7.39383C6.45425 3.17808 12.5776 3.66667 13.7307 8.08042C11.4079 5.35425 7.3205 5.06092 4.63558 7.39383Z" fill="#A0A0A0"/>
</g>
<defs>
<clipPath id="clip0">
<rect width="22" height="22" fill="white"/>
</clipPath>
</defs>
</svg>
