<svg fill="#FFF" xmlns="http://www.w3.org/2000/svg"  viewBox="0 0 50 50" width="100px" height="100px"><path d="M39,47H10c-0.379,0-0.725-0.214-0.895-0.553C8.937,46.108,8.973,45.703,9.2,45.4l3.8-3.733V8.333L10.2,4.6c-0.228-0.303-0.264-0.708-0.095-1.047C10.275,3.214,10.621,3,11,3h11c0.553,0,1,0.447,1,1v36h21c0.385,0,0.734,0.221,0.901,0.566c0.166,0.347,0.12,0.758-0.12,1.059l-5,5C39.591,46.862,39.304,47,39,47z"/><path d="M11 38.288C8.503 35.198 7 31.273 7 27s1.503-8.198 4-11.288v-2.971c-3.456 3.394-5.693 8.025-5.971 13.172C5.01 26.273 5 26.635 5 27c0 .59.026 1.174.076 1.751C5.502 33.631 7.693 38.012 11 41.259V38.288zM25 9c9.925 0 18 8.075 18 18 0 4.144-1.422 7.954-3.784 11h2.47C43.775 34.841 45 31.063 45 27c0-11.028-8.972-20-20-20V9z"/><path d="M25 38h11.589C39.315 35.13 41 31.262 41 27c0-8.822-7.178-16-16-16V38zM11 19.271C9.729 21.564 9 24.198 9 27s.729 5.436 2 7.729V19.271z"/></svg>